<?xml version="1.0" encoding="UTF-8"?>
<svg width="149px" height="115px" viewBox="0 0 149 115" version="1.1" xmlns="http://www.w3.org/2000/svg" xmlns:xlink="http://www.w3.org/1999/xlink">
    <!-- Generator: Sketch 51.3 (57544) - http://www.bohemiancoding.com/sketch -->
    <title>Group</title>
    <desc>Created with Sketch.</desc>
    <defs></defs>
    <g id="Page-1" stroke="none" stroke-width="1" fill="none" fill-rule="evenodd">
        <g id="Artboard" transform="translate(-84.000000, -135.000000)">
            <g id="Group" transform="translate(84.000000, 139.000000)">
                <polygon id="W" fill="#FFFFFF" points="36.0458984 39.5556641 40.7041016 1.015625 52.0419922 1.015625 43.1650391 65 32.0029297 65 25.9384766 27.2070312 20.09375 65 8.93164062 65 0.142578125 1.015625 11.4365234 1.015625 16.0068359 39.2919922 21.4560547 1.015625 30.2890625 1.015625"></polygon>
                <path d="M135.979492,48.3007812 C135.979492,47.1581974 135.78174,46.0888722 135.38623,45.0927734 C134.990721,44.0966747 134.316899,43.1665082 133.364746,42.3022461 C132.412593,41.437984 131.167488,40.6469762 129.629395,39.9291992 C128.091301,39.2114222 126.179699,38.544925 123.894531,37.9296875 C121.111314,37.1679649 118.452649,36.215826 115.918457,35.0732422 C113.384265,33.9306583 111.1504,32.553719 109.216797,30.9423828 C107.283193,29.3310466 105.737799,27.4560654 104.580566,25.3173828 C103.423334,23.1787002 102.844727,20.7177874 102.844727,17.9345703 C102.844727,15.2392443 103.41601,12.7929797 104.558594,10.5957031 C105.701178,8.39842651 107.283193,6.52344526 109.304688,4.97070312 C111.326182,3.41796099 113.713853,2.22412527 116.467773,1.38916016 C119.221693,0.554195044 122.209945,0.13671875 125.432617,0.13671875 C128.772478,0.13671875 131.826646,0.620112354 134.595215,1.58691406 C137.363783,2.55371577 139.744131,3.90868269 141.736328,5.65185547 C143.728526,7.39502825 145.281244,9.46776143 146.394531,11.8701172 C147.507818,14.2724729 148.064453,16.9091653 148.064453,19.7802734 L136.023438,19.7802734 C135.964843,18.3447194 135.708498,17.0263732 135.254395,15.8251953 C134.800291,14.6240174 134.126469,13.5913129 133.23291,12.7270508 C132.339351,11.8627886 131.226081,11.1889673 129.893066,10.7055664 C128.560052,10.2221656 127.000009,9.98046875 125.212891,9.98046875 C123.572257,9.98046875 122.114752,10.1782207 120.840332,10.5737305 C119.565912,10.9692403 118.489262,11.5258753 117.610352,12.2436523 C116.731441,12.9614294 116.064944,13.8110302 115.61084,14.7924805 C115.156736,15.7739307 114.929688,16.8359318 114.929688,17.9785156 C114.929688,19.1796935 115.229977,20.263667 115.830566,21.2304688 C116.431155,22.1972705 117.302729,23.0688438 118.445312,23.8452148 C119.587896,24.6215859 120.97216,25.332028 122.598145,25.9765625 C124.224129,26.621097 126.06249,27.2216769 128.113281,27.7783203 C131.042983,28.6279339 133.738269,29.6679626 136.199219,30.8984375 C138.660169,32.1289124 140.776847,33.5864174 142.549316,35.2709961 C144.321786,36.9555748 145.698726,38.874501 146.680176,41.027832 C147.661626,43.1811631 148.152344,45.5761587 148.152344,48.2128906 C148.152344,51.0254047 147.588385,53.5229383 146.460449,55.7055664 C145.332514,57.8881945 143.772471,59.7338792 141.780273,61.2426758 C139.788076,62.7514724 137.415053,63.8940391 134.661133,64.6704102 C131.907213,65.4467812 128.904313,65.8349609 125.652344,65.8349609 C123.630849,65.8349609 121.616709,65.6518573 119.609863,65.2856445 C117.603017,64.9194318 115.684091,64.3554726 113.853027,63.59375 C112.021964,62.8320274 110.315438,61.8798885 108.733398,60.7373047 C107.151359,59.5947208 105.781744,58.2617264 104.624512,56.7382812 C103.467279,55.2148361 102.559085,53.4863378 101.899902,51.5527344 C101.240719,49.619131 100.911133,47.4804805 100.911133,45.1367188 L113.040039,45.1367188 C113.098633,47.0703222 113.435544,48.7255791 114.050781,50.1025391 C114.666019,51.4794991 115.522944,52.6074175 116.621582,53.4863281 C117.72022,54.3652388 119.038567,55.0097636 120.57666,55.4199219 C122.114754,55.8300802 123.806631,56.0351562 125.652344,56.0351562 C127.292977,56.0351562 128.750482,55.8447285 130.024902,55.4638672 C131.299323,55.0830059 132.375972,54.5556674 133.254883,53.8818359 C134.133793,53.2080044 134.807615,52.3950243 135.276367,51.4428711 C135.74512,50.4907179 135.979492,49.4433651 135.979492,48.3007812 Z" id="S" fill="#FFFFFF"></path>
                <path d="M4.93945312,90.6074219 L5.56054688,85.46875 L7.07226562,85.46875 L5.88867188,94 L4.40039062,94 L3.59179688,88.9609375 L2.8125,94 L1.32421875,94 L0.15234375,85.46875 L1.65820312,85.46875 L2.26757812,90.5722656 L2.99414062,85.46875 L4.171875,85.46875 L4.93945312,90.6074219 Z M19.5996094,94 L17.9707031,94 L17.9707031,90.3027344 L15.5566406,90.3027344 L15.5566406,94 L13.921875,94 L13.921875,85.46875 L15.5566406,85.46875 L15.5566406,88.9667969 L17.9707031,88.9667969 L17.9707031,85.46875 L19.5996094,85.46875 L19.5996094,94 Z M27.5332031,85.46875 L32.4667969,85.46875 L32.4667969,86.7988281 L30.8027344,86.7988281 L30.8027344,92.6757812 L32.4667969,92.6757812 L32.4667969,94 L27.5332031,94 L27.5332031,92.6757812 L29.15625,92.6757812 L29.15625,86.7988281 L27.5332031,86.7988281 L27.5332031,85.46875 Z M46.640625,86.8105469 L44.0097656,86.8105469 L44.0097656,94 L42.3574219,94 L42.3574219,86.8105469 L39.7617188,86.8105469 L39.7617188,85.46875 L46.640625,85.46875 L46.640625,86.8105469 Z M58.8222656,90.2617188 L55.3183594,90.2617188 L55.3183594,92.6699219 L59.4140625,92.6699219 L59.4140625,94 L53.6660156,94 L53.6660156,85.46875 L59.3964844,85.46875 L59.3964844,86.8105469 L55.3183594,86.8105469 L55.3183594,88.9609375 L58.8222656,88.9609375 L58.8222656,90.2617188 Z M84.4042969,91.7734375 C84.4042969,91.621093 84.37793,91.4785163 84.3251953,91.3457031 C84.2724607,91.21289 84.1826178,91.0888678 84.0556641,90.9736328 C83.9287103,90.8583979 83.7626963,90.7529302 83.5576172,90.6572266 C83.352538,90.561523 83.0976578,90.4726567 82.7929688,90.390625 C82.4218731,90.289062 82.0673845,90.1621101 81.7294922,90.0097656 C81.3915999,89.8574211 81.0937513,89.6738292 80.8359375,89.4589844 C80.5781237,89.2441396 80.3720711,88.9941421 80.2177734,88.7089844 C80.0634758,88.4238267 79.9863281,88.095705 79.9863281,87.7246094 C79.9863281,87.3652326 80.0624992,87.039064 80.2148438,86.7460938 C80.3671883,86.4531235 80.5781237,86.203126 80.8476562,85.9960938 C81.1171888,85.7890615 81.435545,85.6298834 81.8027344,85.5185547 C82.1699237,85.407226 82.5683572,85.3515625 82.9980469,85.3515625 C83.4433616,85.3515625 83.8505841,85.416015 84.2197266,85.5449219 C84.588869,85.6738288 84.9062487,85.854491 85.171875,86.0869141 C85.4375013,86.3193371 85.6445305,86.5957015 85.7929688,86.9160156 C85.941407,87.2363297 86.015625,87.5878887 86.015625,87.9707031 L84.4101562,87.9707031 C84.4023437,87.7792959 84.3681644,87.6035164 84.3076172,87.4433594 C84.24707,87.2832023 84.1572272,87.1455084 84.0380859,87.0302734 C83.9189447,86.9150385 83.7705087,86.8251956 83.5927734,86.7607422 C83.4150382,86.6962887 83.2070324,86.6640625 82.96875,86.6640625 C82.7499989,86.6640625 82.5556649,86.6904294 82.3857422,86.7431641 C82.2158195,86.7958987 82.0722662,86.8701167 81.9550781,86.9658203 C81.83789,87.0615239 81.7490237,87.174804 81.6884766,87.3056641 C81.6279294,87.4365241 81.5976562,87.5781242 81.5976562,87.7304688 C81.5976562,87.8906258 81.6376949,88.0351556 81.7177734,88.1640625 C81.797852,88.2929694 81.9140617,88.4091792 82.0664062,88.5126953 C82.2187508,88.6162115 82.4033192,88.7109371 82.6201172,88.796875 C82.8369151,88.8828129 83.0820299,88.9628903 83.3554688,89.0371094 C83.7460957,89.1503912 84.1054671,89.2890617 84.4335938,89.453125 C84.7617204,89.6171883 85.0439441,89.8115223 85.2802734,90.0361328 C85.5166027,90.2607433 85.7001947,90.5166001 85.8310547,90.8037109 C85.9619147,91.0908217 86.0273438,91.4101545 86.0273438,91.7617188 C86.0273438,92.1367206 85.9521492,92.4697251 85.8017578,92.7607422 C85.6513664,93.0517593 85.4433607,93.2978506 85.1777344,93.4990234 C84.912108,93.7001963 84.595705,93.8525385 84.2285156,93.9560547 C83.8613263,94.0595708 83.4609397,94.1113281 83.0273438,94.1113281 C82.7578112,94.1113281 82.4892592,94.0869143 82.2216797,94.0380859 C81.9541002,93.9892576 81.6982434,93.914063 81.4541016,93.8125 C81.2099597,93.710937 80.9824229,93.5839851 80.7714844,93.4316406 C80.5605458,93.2792961 80.3779305,93.1015635 80.2236328,92.8984375 C80.0693352,92.6953115 79.9482426,92.464845 79.8603516,92.2070312 C79.7724605,91.9492175 79.7285156,91.6640641 79.7285156,91.3515625 L81.3457031,91.3515625 C81.3535157,91.6093763 81.3984371,91.8300772 81.4804688,92.0136719 C81.5625004,92.1972665 81.6767571,92.3476557 81.8232422,92.4648438 C81.9697273,92.5820318 82.1455068,92.6679685 82.3505859,92.7226562 C82.5556651,92.777344 82.7812488,92.8046875 83.0273438,92.8046875 C83.2460948,92.8046875 83.4404288,92.7792971 83.6103516,92.7285156 C83.7802743,92.6777341 83.9238275,92.6074223 84.0410156,92.5175781 C84.1582037,92.4277339 84.2480466,92.3193366 84.3105469,92.1923828 C84.3730472,92.0654291 84.4042969,91.925782 84.4042969,91.7734375 Z M94.9277344,90.8710938 L94.9277344,94 L93.28125,94 L93.28125,85.46875 L96.1992188,85.46875 C96.6640648,85.46875 97.0839825,85.5361321 97.4589844,85.6708984 C97.8339863,85.8056647 98.153319,85.9931629 98.4169922,86.2333984 C98.6806654,86.473634 98.8837883,86.7617171 99.0263672,87.0976562 C99.168946,87.4335954 99.2402344,87.8066386 99.2402344,88.2167969 C99.2402344,88.5996113 99.168946,88.9531234 99.0263672,89.2773438 C98.8837883,89.6015641 98.6806654,89.8818348 98.4169922,90.1181641 C98.153319,90.3544934 97.8339863,90.5390618 97.4589844,90.671875 C97.0839825,90.8046882 96.6640648,90.8710938 96.1992188,90.8710938 L94.9277344,90.8710938 Z M94.9277344,89.5351562 L96.1992188,89.5351562 C96.4335949,89.5351562 96.6367179,89.5000004 96.8085938,89.4296875 C96.9804696,89.3593746 97.1240229,89.2636725 97.2392578,89.1425781 C97.3544928,89.0214838 97.4404294,88.8818367 97.4970703,88.7236328 C97.5537112,88.5654289 97.5820312,88.4003915 97.5820312,88.2285156 C97.5820312,88.0292959 97.5537112,87.8437509 97.4970703,87.671875 C97.4404294,87.4999991 97.3544928,87.34961 97.2392578,87.2207031 C97.1240229,87.0917962 96.9804696,86.9902347 96.8085938,86.9160156 C96.6367179,86.8417965 96.4335949,86.8046875 96.1992188,86.8046875 L94.9277344,86.8046875 L94.9277344,89.5351562 Z M110.572266,92.21875 L108.011719,92.21875 L107.507812,94 L105.773438,94 L108.568359,85.46875 L110.0625,85.46875 L112.804688,94 L111.070312,94 L110.572266,92.21875 Z M108.416016,90.8183594 L110.185547,90.8183594 L109.3125,87.6777344 L108.416016,90.8183594 Z M125.501953,91.328125 C125.474609,91.7578146 125.381837,92.1445295 125.223633,92.4882812 C125.065429,92.832033 124.853517,93.1249988 124.587891,93.3671875 C124.322264,93.6093762 124.005861,93.7958978 123.638672,93.9267578 C123.271483,94.0576178 122.865237,94.1230469 122.419922,94.1230469 C121.916013,94.1230469 121.468752,94.0302744 121.078125,93.8447266 C120.687498,93.6591788 120.359376,93.3994157 120.09375,93.0654297 C119.828124,92.7314436 119.625001,92.3300805 119.484375,91.8613281 C119.343749,91.3925758 119.273438,90.8769559 119.273438,90.3144531 L119.273438,89.1660156 C119.273438,88.5996065 119.347656,88.0820336 119.496094,87.6132812 C119.644532,87.1445289 119.855467,86.7421892 120.128906,86.40625 C120.402345,86.0703108 120.733396,85.8095712 121.12207,85.6240234 C121.510744,85.4384756 121.947263,85.3457031 122.431641,85.3457031 C122.900393,85.3457031 123.317381,85.4121087 123.682617,85.5449219 C124.047853,85.677735 124.359374,85.8671863 124.617188,86.1132812 C124.875001,86.3593762 125.078124,86.6601545 125.226562,87.015625 C125.375001,87.3710955 125.46875,87.7714821 125.507812,88.2167969 L123.867188,88.2167969 C123.851562,87.9628894 123.813477,87.7402353 123.75293,87.5488281 C123.692383,87.3574209 123.604493,87.1982428 123.489258,87.0712891 C123.374023,86.9443353 123.229493,86.8486331 123.055664,86.7841797 C122.881835,86.7197262 122.673829,86.6875 122.431641,86.6875 C122.177733,86.6875 121.957032,86.742187 121.769531,86.8515625 C121.58203,86.960938 121.426758,87.1210927 121.303711,87.3320312 C121.180663,87.5429698 121.089844,87.8017563 121.03125,88.1083984 C120.972656,88.4150406 120.943359,88.7636699 120.943359,89.1542969 L120.943359,90.3144531 C120.943359,91.1543011 121.061522,91.7753886 121.297852,92.1777344 C121.534181,92.5800801 121.908201,92.78125 122.419922,92.78125 C122.849612,92.78125 123.189452,92.6669933 123.439453,92.4384766 C123.689454,92.2099598 123.828125,91.8398463 123.855469,91.328125 L125.501953,91.328125 Z M138.029297,90.2617188 L134.525391,90.2617188 L134.525391,92.6699219 L138.621094,92.6699219 L138.621094,94 L132.873047,94 L132.873047,85.46875 L138.603516,85.46875 L138.603516,86.8105469 L134.525391,86.8105469 L134.525391,88.9609375 L138.029297,88.9609375 L138.029297,90.2617188 Z M2.7890625,101.46875 L3.59765625,104.673828 L4.51757812,101.46875 L6.5625,101.46875 L6.5625,110 L5.05078125,110 L5.05078125,107.474609 L5.12109375,103.484375 L4.00195312,107.1875 L3.1875,107.1875 L2.18554688,103.642578 L2.25585938,107.474609 L2.25585938,110 L0.744140625,110 L0.744140625,101.46875 L2.7890625,101.46875 Z M18.1640625,108.21875 L15.6035156,108.21875 L15.0996094,110 L13.3652344,110 L16.1601562,101.46875 L17.6542969,101.46875 L20.3964844,110 L18.6621094,110 L18.1640625,108.21875 Z M16.0078125,106.818359 L17.7773438,106.818359 L16.9042969,103.677734 L16.0078125,106.818359 Z M33.0351562,109.003906 C32.929687,109.132813 32.7851572,109.263671 32.6015625,109.396484 C32.4179678,109.529298 32.2001966,109.649414 31.9482422,109.756836 C31.6962878,109.864258 31.4140641,109.951172 31.1015625,110.017578 C30.7890609,110.083985 30.4531268,110.117188 30.09375,110.117188 C29.6093726,110.117188 29.171877,110.031251 28.78125,109.859375 C28.390623,109.687499 28.056642,109.439455 27.7792969,109.115234 C27.5019517,108.791014 27.2880867,108.393557 27.1376953,107.922852 C26.9873039,107.452146 26.9121094,106.917972 26.9121094,106.320312 L26.9121094,105.160156 C26.9121094,104.562497 26.9912101,104.028323 27.1494141,103.557617 C27.307618,103.086912 27.5263658,102.687502 27.8056641,102.359375 C28.0849623,102.031248 28.4130841,101.781251 28.7900391,101.609375 C29.1669941,101.437499 29.5761697,101.351562 30.0175781,101.351562 C30.4980493,101.351562 30.9169904,101.412109 31.2744141,101.533203 C31.6318377,101.654297 31.9335925,101.8291 32.1796875,102.057617 C32.4257825,102.286134 32.6181634,102.564451 32.7568359,102.892578 C32.8955085,103.220705 32.9863279,103.589842 33.0292969,104 L31.4238281,104 C31.3691404,103.562498 31.2373057,103.2334 31.0283203,103.012695 C30.8193349,102.791991 30.4960959,102.681641 30.0585938,102.681641 C29.8476552,102.681641 29.6523446,102.735351 29.4726562,102.842773 C29.2929679,102.950196 29.1367194,103.107421 29.0039062,103.314453 C28.8710931,103.521485 28.7656254,103.778319 28.6875,104.084961 C28.6093746,104.391603 28.5703125,104.746092 28.5703125,105.148438 L28.5703125,106.320312 C28.5742188,107.117191 28.7070299,107.727537 28.96875,108.151367 C29.2304701,108.575197 29.6308567,108.789062 30.1699219,108.792969 C30.2988288,108.792969 30.4257806,108.783203 30.5507812,108.763672 C30.6757819,108.744141 30.7929682,108.716797 30.9023438,108.681641 C31.0117193,108.646484 31.108398,108.606446 31.1923828,108.561523 C31.2763676,108.516601 31.3398435,108.46875 31.3828125,108.417969 L31.3886719,106.871094 L29.9765625,106.871094 L29.9765625,105.640625 L33.0292969,105.640625 L33.0351562,109.003906 Z M44.5664062,108.21875 L42.0058594,108.21875 L41.5019531,110 L39.7675781,110 L42.5625,101.46875 L44.0566406,101.46875 L46.7988281,110 L45.0644531,110 L44.5664062,108.21875 Z M42.4101562,106.818359 L44.1796875,106.818359 L43.3066406,103.677734 L42.4101562,106.818359 Z M55.3300781,108.669922 L59.5605469,108.669922 L59.5605469,110 L53.3261719,110 L53.3261719,108.992188 L57.4628906,102.810547 L53.3378906,102.810547 L53.3378906,101.46875 L59.4550781,101.46875 L59.4609375,102.447266 L55.3300781,108.669922 Z M67.1367188,101.46875 L72.0703125,101.46875 L72.0703125,102.798828 L70.40625,102.798828 L70.40625,108.675781 L72.0703125,108.675781 L72.0703125,110 L67.1367188,110 L67.1367188,108.675781 L68.7597656,108.675781 L68.7597656,102.798828 L67.1367188,102.798828 L67.1367188,101.46875 Z M85.5996094,110 L83.9589844,110 L81.5859375,104.498047 L81.5859375,110 L79.9277344,110 L79.9277344,101.46875 L81.5859375,101.46875 L83.9414062,106.947266 L83.9472656,101.46875 L85.5996094,101.46875 L85.5996094,110 Z M98.4257812,106.261719 L94.921875,106.261719 L94.921875,108.669922 L99.0175781,108.669922 L99.0175781,110 L93.2695312,110 L93.2695312,101.46875 L99,101.46875 L99,102.810547 L94.921875,102.810547 L94.921875,104.960938 L98.4257812,104.960938 L98.4257812,106.261719 Z" id="WHITE-SPACE-MAGAZINE" fill="#FFFFFF"></path>
                <path d="M58.5,65.5 L95.5,0.5" id="Line" stroke="#EC7F7F" stroke-width="6" stroke-linecap="square" fill-rule="nonzero"></path>
            </g>
        </g>
    </g>
</svg>